<?xml version="1.0" encoding="UTF-8"?>
<!DOCTYPE svg PUBLIC "-//W3C//DTD SVG 1.1//EN" "http://www.w3.org/Graphics/SVG/1.1/DTD/svg11.dtd">
<!-- Creator: CorelDRAW X7 -->
<svg xmlns="http://www.w3.org/2000/svg" xml:space="preserve" width="8.5in" height="11in" version="1.1" style="shape-rendering:geometricPrecision; text-rendering:geometricPrecision; image-rendering:optimizeQuality; fill-rule:evenodd; clip-rule:evenodd"
viewBox="0 0 8500 11000"
 xmlns:xlink="http://www.w3.org/1999/xlink">
 <defs>
  <style type="text/css">
   <![CDATA[
    .fil0 {fill:#EEEEEE}
   ]]>
  </style>
 </defs>
 <g id="Layer_x0020_1">
  <metadata id="CorelCorpID_0Corel-Layer"/>
  <path class="fil0" d="M7893 1250l-7288 0c-334,0 -605,275 -605,613l0 7274c0,338 271,613 605,613l7288 0c334,0 607,-275 607,-613l0 -7274c0,-338 -273,-613 -607,-613zm-5324 7286l-1260 0 0 -4057 1262 0 0 4057 -2 0zm-630 -4611c-404,0 -730,-328 -730,-730 0,-402 326,-731 730,-731 402,0 731,329 731,731 0,404 -327,730 -731,730zm5352 4611l-1259 0 0 -1973c0,-471 -10,-1076 -655,-1076 -656,0 -757,512 -757,1041l0 2008 -1260 0 0 -4057 1209 0 0 554 17 0c169,-318 580,-654 1193,-654 1275,0 1512,840 1512,1933l0 2224z"/>
 </g>
</svg>
